<?xml version="1.0" encoding="utf-8"?>
<!-- Generator: Adobe Illustrator 18.1.0, SVG Export Plug-In . SVG Version: 6.00 Build 0)  -->
<svg version="1.1" id="Layer_1" xmlns="http://www.w3.org/2000/svg" xmlns:xlink="http://www.w3.org/1999/xlink" x="0px" y="0px"
	 viewBox="0 0 300 300" enable-background="new 0 0 300 300" xml:space="preserve">
<g>
	<path fill="none" d="M110,160.1c3.3,10,6.5,20.9,9.5,28.9c3.5,0,10.9,0,20.3,0C127.1,182,116.8,172.4,110,160.1z"/>
	<path fill="none" d="M104.7,103c-5.7,0-10.3,0-13.5,0c3.1,9,6.7,20.3,10.4,31.7c-0.4-3-0.6-6-0.6-9.1
		C101,117.7,102.3,110,104.7,103z"/>
	<path fill="none" d="M244.1,125.6c0,27.6-15.7,52.4-38.7,63.4c12,0,20.8,0,22.4,0c1.7-5,23.9-76,26.8-86c-1.7,0-6.8,0-14.3,0
		C242.8,110,244.1,117.6,244.1,125.6z"/>
	<path fill="#FFAF3A" d="M244.1,125.6c0-7.9-1.3-15.6-3.7-22.6c-2,0-4.1,0-6.4,0l0.3,1.3c0,0,0.6,0.7,0.6,1.2c0,0.6,1.2,1.8,1.2,1.8
		l1,0.9v-1.7l0.7,1.1l0.5,1.3c0,0,8.2,21.6-5.7,47l0.5-2.6v-3l0.1-2.3c0,0,0-2.6,0.4-3.2c0.4-0.6,0.7-2.1,0.7-2.1l-0.2-2.3v-3.2
		c0,0-0.2-1.1-0.4-1.9c-0.2-0.7-0.1-1.9-0.1-1.9l0.5-2.1v-2.1l-1.3-0.4c0,0-0.5,0-0.7-0.6c-0.2-0.6-0.2-0.6-0.2-0.6h-2.1l-1.1,1
		h-1.5l-1.7,0.1l-0.6,0.5l-2.3-0.8l-1.1-1.7l-0.6-1.3l-0.7-1.5l-1.7-2.1l-0.2-1.5c0,0,0-1.3,0.2-2.3c0.2-0.9,0.8-1.9,0.8-1.9
		s0.2-1.7,0.2-2.3c0-0.6,0-1.9,0.2-2.4c0.2-0.6,0.9-2.1,1.5-2.6c0.6-0.6,1.9-2.1,1.9-2.1s0.8-0.6,1.3-0.8c0.6-0.2,0.9-0.8,0.9-0.8
		l0.6-1.4l1.3-1.3c-15.4,0-35.4,0-55.4,0c0.4,0,1.3,0.4,1.3,1.2c0,0.9,0,1.9,0,1.9l-0.7,1.1l-0.9-1.1l-1.2-1.3l-0.8-1L169,103
		c-3.7,0-7.4,0-11,0c-0.4,0-0.8,0.4-1.1,0.6c-0.6,0.4-1.7,2.2-1.7,2.2s-1.3,6.9,3.4,8.4l1.9-0.2l1.7-0.8v-0.8c0,0,0-2.1,1.9-1.9
		l1.9-0.2l0.6,0.6l-0.6,1.7l-0.4,0.9c0,0-0.4,1.1-0.6,1.7c-0.2,0.6-0.8,1.8-0.8,1.8l1.3,0.9h1.5h1.1c0,0,3-1.8,2.6,1.4
		c0,0-0.2,0.7-0.2,1.2c0,0.6-0.2,0.6-0.2,1.2c0,0.6,0.4,0.7,0.7,1.3c0.4,0.6,1.1,0.7,1.1,0.7l0.9-0.2l1.3-0.6c0,0,1.1-0.2,1.5,0.6
		c0.4,0.8,1.3,1.7,1.3,1.7l0.7-0.9l0.8-1.7l0.4-0.6l1.3-0.2l1.1-0.2c0,0,0.4-0.4,0.9-0.4c0.6,0,1.3-0.4,1.3-0.4l1.1,0.2l1.1,1.3
		l1.1,0.4c0,0,0.6-0.1,1.5,0.1c0.9,0.2,2.4,0.1,2.4,0.1h0.6l0.9,0.6l1.3,0.4l1.7,1.2l1.8,2l1.4-10.5c0.2-1.4,1.5-2.4,2.9-2.2
		c1.4,0.2,2.4,1.5,2.2,2.9l-1.2,11.6c1.1,0.5,2.1,1.5,3.1,3.4v1.3c0,0,0,0.2,0.8,1.1c0.8,0.9,1.5,1.1,1.5,1.1l1.8,1.3l0.7,0.8
		l1.3,0.8c0,0,0.4,0,1.1,0.2c0.8,0.2,1.5,0.4,1.5,0.4l1.1,0.9l1.3,0.9c0,0,0.4,0.5,0.6,1.1c0.1,0.3,0.4,0.7,0.1,2.7h7
		c1.4,0,2.6,0.6,2.6,2s-1.2,2-2.6,2h-11.1c-0.1,0-0.2,0.7-0.2,1l-0.6,2.3c0,0-0.6,1.3-0.9,2.1c-0.4,0.8,0,1.3-0.9,2.1
		c-0.9,0.8-1.7,1.3-2.3,1.5c-0.6,0.2-2.1,0.8-2.1,0.8s-0.4,0-1.7,0.8c-1.3,0.8-1.9,0.6-2.1,1.3c-0.2,0.8-0.4,1.5-0.4,2.1
		c0,0.6-1.3,1.1-1.7,1.9c-0.4,0.7-1.5,1.3-1.5,1.3s-0.2,0.6-1.3,1.5c-0.2,0.2-0.4,0.3-0.6,0.5l-1.1,8.4c-0.2,1.4-1.5,2.4-2.9,2.2
		c-1.4-0.2-2.4-1.5-2.2-2.9l0.4-3.3c-0.8,0.2-2.2,0.7-2.2,0.7l-0.6,1.3l-1.1,0.4l0.4,0.9l-0.6,0.6c0,0,0,0.6-0.8,0.9
		c-0.7,0.4-0.7,0.4-0.7,0.4l0.2,0.9c0,0,0.2,0.2-0.6,0.8c-0.7,0.6-1.3,1.1-1.3,1.1l-0.2,0.6l1.3,0.7l0.9,1.7c0,0-8.3,1.5-5.3-6.6
		v-2.4l0.4-1.3l0.5-2.6c0,0-0.1-2.1,0.1-2.6c0.2-0.6,0.5-2.6,0.5-2.6l0.3-3c0,0,0.2-1.5,0.4-2.6c0.2-1.1,0.4-1.9,0.4-2.8
		c0-0.9,0.6-1.5,0-2.6c-0.6-1.1-0.8-0.9-2.1-1.7c-1.3-0.8-1.9-0.9-2.4-1.5c-0.6-0.6-0.8-0.5-1.3-1.8c0,0,0-0.2-0.1-0.2h-23.9
		l3.7,31.4c0.2,1.4-0.8,2.8-2.3,2.9c-1.4,0.2-2.7-0.9-2.9-2.3l-3.8-32h-22.1l1.5,2.9c0,0,1.7,1.5,2.1,2.3c0.4,0.8,1.9,3.2,1.9,3.2
		s0.9,2.3,1.3,3c0.4,0.8,0.4,1.9,0.2,2.5c-0.2,0.6-0.6,1.7-0.8,2.4c-0.2,0.8-0.6,1.3-0.6,1.3l-0.5,1.5l-1.5,0.2v1.1l0.9,1.1l0.3,0.6
		l-0.3,0.7l-1.7-3l-0.9-0.9l-2.4-1.7l-1.3-1.9c0,0-0.6-0.2-1.1-0.2c-0.6,0-0.8-1.1-0.8-1.1l-0.8-0.6c-0.9-2.1-4.3-1.9-4.3-1.9
		l-1.7-0.2c-1.7-0.2-4.7-8.5-4.7-8.5l0.6-2.3l0.8-0.2l0.8-1.5l0.2-1l1.3-1h0.9l0.4-0.9l1.3-0.6c3.8-0.4,3,2,3,2.6
		c0,0.6,0.2,1.1,0.2,1.1l1.4,0.6l1.1,1.3c0,0,0-0.8,0-1.3c0-0.1,0.1-0.4,0.1-0.7c-0.3-0.4-0.4-0.4-0.4-1c0-1.4,1.2-2.1,2.6-2.1h2.7
		c-0.6-2-1.6-2.3-1.6-2.3L125,142l-0.2,1c0,0-0.4,0.9-1.3,0.5c-0.9-0.4-1.5-0.8-1.5-0.8s-0.8,0-1.3-0.4c-0.6-0.4-0.9-1.1-0.9-1.1
		l1.1-0.2c0,0,1.3,0,0.4-0.8c-0.9-0.8-1.7-1.5-1.7-1.5s-1.3-0.6-1.9-0.8c-0.6-0.2-1.3-0.8-1.3-0.8l-1.3-0.4l-2.1-0.4l-1.3,0.9l0,1.1
		L111,138V136v-2.1l0.7,0.2l0.2,1.3l1,0.4l-0.2-1.5l-0.6-0.8l-2.3-0.2l-1.1,1.1c0,0.9-0.6,0.6-0.6,0.6H107l-0.9,0.2l-0.8,0
		c-2.3-14.3-0.1-25.2,2.3-32.2c-1,0-1.9,0-2.9,0c-2.4,7-3.7,14.6-3.7,22.5c0,3.1,0.2,6.1,0.6,9.1c2.7,8.3,5.5,16.9,8.3,25.4
		c6.8,12.3,17.2,21.9,29.7,28.9c12.2,0,27.6,0,42.3,0l-0.5-0.7l1.7-1.3l0.9,0c0,0,2.6,0,4.1,0c1.5,0,1.5,0.5,2.8,0.5
		c1.3,0,1.7,0.2,2.3,0c0.6-0.2,1.5-0.4,2.8-0.8c1.3-0.4,1.1,0.1,2.3-0.1c1.1-0.2,1.9-0.7,1.9-0.7l3.2-1.3l0.4,0.6
		c-2,1.5-4.2,1.7-6.5,3.7c2.8,0,5.5,0,8.1,0C228.4,178,244.1,153.2,244.1,125.6z M176.7,112l-1.3-0.7l-2.4-0.6
		c-1.9-1.3-3.9-0.4-3.9-0.4c-0.8-3.2,6.6-0.2,6.6-0.2l2.1,1.1l0.6,0.9H176.7z M183.3,114.7l-1-0.6l-2.3,0.6v-0.6l0.8-0.4l0.7-0.4
		l0.7-0.4l0.7,0.4l1.5-0.2l1.7,0.4L183.3,114.7z M145.7,167.6c0,0-0.6,0.4-0.9,0.9c-0.4,0.6-0.9,0.6-1.7,0.6c-0.8,0-0.9,0.6-0.9,0.6
		l-1.5,0.6l-0.9,0.6l-1.5,0.6c-2.1-1.3,0.4-2.3,0.4-2.3l1.5-0.4c0,0,0.8-0.6,1.3-0.7c0.6-0.2,1.1,0,1.5-1.3c0.4-1.3,0,0,0.4-0.6
		c0.4-0.6,0-1.5,0-1.5s-0.2-1.5,0.6-1.1c0.8,0.4,0.9,2.3,0.9,2.3l1.1,1.3L145.7,167.6z"/>
	<path fill="#FFAF3A" d="M109.6,106.3l-0.4-0.8l-0.2-0.9c0,0-1,0.4-1.2,0.9c-0.2,0.6,0.1,1.9,0.1,2.8c0,0.9,0,2.8,0,3.6
		c0,0.7-0.5,1.5-0.5,1.5l-1.2,2.3c0,0-0.4,2.6-0.4,3.2c0,0.6-0.4,2.8-0.4,2.8s0,2.1-0.2,2.6c-0.2,0.6,0,1.9,0,1.9l0.4,2.4l0.2,1.9
		l0.4,1.3l0.4-1.3c0,0,0.8-2.1,1.3-3.4c0.6-1.3,0.8,0,0.8,0s0.4,1.3,0.2,1.9c-0.2,1.3,0.2,3,0.2,3l1.3-0.6l1.5-0.4h1.5l-0.2,2.1
		l0.4,1.6l1.1-0.7l1.3,0.6l2.3,0.4c0,0,7.9,2.3,8.6,5.1l1.1,0.4l0.2-0.1l1.9-0.7l1.7-0.9c0,0,1.1-0.2,0.9,0.4
		c-0.2,0.6-1.9,1.5-1.9,1.5l-1.1,0.4l-1.9,0.4l0.9,1.6l1.5,2h17.6l-3.4-28.7c-0.2-1.4,0.8-3,2.3-3.1c0.3,0,0.6-0.1,0.8-0.1l-0.4-2.8
		c0,0-2.1-3.6-2.8-4.4l-0.9-1.5l-1.5-1.4c0,0,0,0,0,0c-0.3,0-0.7,0-1,0l0.6,1.1l0.8,1.4l0.8,1.5l0.6,1.7c0,0-0.8-0.6-1.1-1.1
		c-0.4-0.6-1.1-1.3-1.1-1.3l-1.1-1.1c0,0-0.6-0.8-0.6-1.4c0-0.2-0.1-0.8-0.2-0.8c-10.4,0-20,0-28.2,0l-0.8,1.1L109.6,106.3z
		 M111.3,122.8c0.2,0.6,0.6,2.3,0.6,2.3s0.8,0.6,0.6,1.9c-0.2,1.3-1.1,0.9-1.1,0.9l-0.8-2.1l0.6-0.9l-1.3-0.6l0.1-1.3l-0.9-1.1V118
		h0c0,0-0.2,0.5,0,1.3c0.2,0.8-0.2,0.6,0.6,1.8C110.4,122.2,111.1,122.2,111.3,122.8z"/>
	<path fill="#FFAF3A" d="M136.9,89c0,0,0.9-2.9,0.4-4.6c0,0,0.4-4.9-1.1-5.5c0,0-0.8-1.4-7.9,2.5c0,0-0.6,1-1.3,1.4
		c-0.8,0.4-2.8,1.5-3.6,2.1c-0.8,0.6-1.5,1.1-2.6,1.7c-1.1,0.6,4-3.6,4-3.6l0.6-1.3c0,0,0.4-0.9,0.9-1.5c0.6-0.6,2.1-1.9,2.1-1.9
		l-0.8-0.4l0.8-1.7l1.5-0.8l1.1-0.8l-0.2-0.9l2.6-2.4l1.9-1.3l4.5-0.3l1.9,0.3h1.9l3.8-2h1.1l0.9,0.5l0.2-1.3l-0.6-0.5l-1.1,0.6
		l-0.7-0.7l0.6-0.4L148,65h1.3l1.1-0.2l1.1,1L153,66l0.4-0.7l-0.9-0.3h-1.1l-0.7-0.8l-1.1-0.9l2.1-1l0.9,0.7l1.1,0.4l0.9-0.4
		l0.4-0.8l0.8,0.4l1.1,0.2l0.9-0.8l-0.4,1h-1.1l-1.1,0.6l-0.8,0.4l0.4,0.1l1.5,0.2l0.9,0.2l0.4,0.8l-1.7,0.8l-0.6-0.6l-0.6,0.8
		l1.7,0.8l-1.3,1.1l-1.3-0.4l-1.3,0.8l-1.9,0.7l2.8,0.9h1.5h1.3l1.3-1.4l-0.2-1.2l1.3,1.2l0.3-0.6l-1-1.2v-0.9l0.6-1.9l0.9,0.8
		l-0.1,1.3l1,1.3l1,0.7h0.6l0.4,1.3l0.7-1l-0.4-1.5l-1.9-1l-0.2-0.9l0.2-1.1l-1.7-0.9l-1.3-1.7l2.8,1.1l-0.6-0.9l0.4-0.4l0.6-1.2
		l-1.3-0.8h-0.9l0.6,1h-0.8l-0.7-0.4l-0.6,1.2l-0.6,0.7l-1.5-0.5l-0.6-0.3l-0.4,1.3l-0.9,0.5L153,62h-1.3l-0.9,0.5l-1.9,0.5h-0.8
		h-0.9l-1.3,0.8l-1.1,0.4l-1.5,0.2l-0.9,1l-0.9,0.4l-1.3,0.6l-1.7,0.6l-1.1,0.8l-1.7-0.4c0,0,16.7-15.6,52.1-9l-0.2,0.8l-3.6-0.8
		c0,0-0.6-1.2-1.9-1.2c-1.3,0-2.8,0-2.8,0l-1.9,2H176c0,0-2.3-2-3-2c-0.8,0-2.4,0-2.4,0l0.2,1l3,0.4l0.9,0.7L175,60c0,0,0.4,0,0.9,0
		c0.6,0,0.7-0.2,1.3,0.2c0.6,0.4,3,1.5,3,1.5s1.3,0.6,2.3,1.3c0.9,0.7,2.4,0.6,2.8,1.5c0.4,0.9,2.1,2.3,2.1,2.3s2.6,1.1,0.2,2.3
		l-1,0.4c0,0,0.4,1.5-0.6,2.1v1.1l1.2,1.9l0.6,2.1l-0.7,0.4c0,0-0.2-0.6-0.7-0.7c-0.6-0.2-0.9-0.4-1.5-0.6c-0.6-0.2-1.7-1.9-1.7-1.9
		l-2.3-2.4l-2.1-1.5l-1.1-1.7l1.9,1.3l-1.7-2.4h-1.7l-0.8-1.3c0,0-3.4-3.2-5.1-3.2c0,0-0.9,0-2.4,0.2c0,0-3.2,0.4-3.2-1.7
		c0,0,0.4-1.7,1.8-2.2l-2,0.1l-0.4,0.9l-0.6,2.1c0,0-0.7,0-1.3,0.2c-0.6,0.2-1.7,0.2-1.7,0.2l2.1,0.4l0.9,0.2l0.6,0.8l-1.5,0.4
		l-0.6,0.8l1.7,0.3h0.9l0.8-1.4l1.7,0.9l0.6,0.2c0,0,5.1,0.7,5.5,3.8l0.9,0.4l0.6,0.7l0.2,1.5h-0.8l-1.1-1.1l-0.4,0.7l1.5,1.3
		L175,72V73l-1.5-0.1l1.3,1.2h-1.1l-2.3-1l-1.3-1.3l-1.1-0.2l-1.5-0.4l0.9-0.6l0.4-1.7l-0.2-0.8l-0.9,0.7l-0.4-0.9l-1.1-0.9
		l-1.1-0.4l-0.2,1.1l0.6,1.5l-0.4,0.6l-1.5,0.4l-1.3,1.7l-1.1,2.1l-1.7,1.7l0.6,1.3l1.9,0.2l1.3,0.4L164,79l-1.7,1.1l-0.6,0.2
		c0,0-0.2-0.4-0.4,0.6c-0.2,0.9,0,2.1,0,2.1l0.4,0.9l-0.2,1.1l1.3,0.2c0,0,1.9,1.7,1.7,0.4c-0.2-1.3,0.2-3.6,0.2-3.6h1.1l1.7-1.1
		l0.9,0.1l0.4-1.5l0.2-2l-0.4-1.4l-0.2-1.9l-0.6-1.3l2.1,0.2l1.7,0.7c0,0,0.6,0.8,1.1,1.1c0.6,0.4,0.9,0.9,0.9,0.9l1.3-0.2l0.7-0.9
		l0.9,0.9l1.3,1.3l1.1,0.4l-0.4,0.8l1.5,1.3l0.9,0.4l1.5,0.2l0.7,0.4l0.9,1.3l2.3,1.3l-0.2,0.6L187,85c0,0,2,0.6,0,0.6
		c0,0-0.7-0.6-1.5-0.6c-0.8,0-1.3-0.4-1.3-0.4l-0.9-1.1l-0.1-1.3c-1.1-0.2-1.6,0.6-1.6,0.6l-0.9,1.1l-0.9-0.8l-1.1-0.8l-1.5,0.8
		l-0.9,0.9c1.2-1,3.3-1.8,5,1.4l0.9,1.5l-1.1,0.3c0,0-0.4-0.2-1.3-0.2c-0.9,0-0.9,0-0.9,0s-0.2,0-0.8,0c-0.6,0-0.6,0-0.6,0
		s-0.4,0.6-0.6,1.5c-0.2,0.9,0.4,1.1-0.8,1.8c-1.1,0.8-1.5,1.6-1.5,1.6L174,93h49v1l0.8-0.9c0,0,1.5-0.4,1.8,0.2
		c0.4,0.6,1.2,0.6,1.2,0.6l0.6-0.9l-0.4-1.5l-1.1-1.9l-0.4-1.5h1.5l0.6-0.7l-1.8,0.7l-0.9-0.8v-1.1l-0.2-1.5c0,0-0.4,0.4-0.8,0.9
		c-0.4,0.6-1,0.6-1,0.6l-0.4-0.7l0.2-1.3h0.7l-0.4-1.9c0,0,2.3,1.5,4.5,6l0.4-1.1l-2.4-3.4l0.6-1.3c0,0,3.7,4.8,6.7,10.8h4
		c-11.6-23-36.1-40.2-64.3-40.2c-28.3,0-52.7,17.2-64.3,40.2h27.6C135.9,93,136.2,90.8,136.9,89z M193.7,72.2l2.1-0.4l1.5,1.1
		l1.5,0.7l-0.9,1.3c0,0-0.9,0-1.5-0.4c-0.6-0.4,0.4-0.6-1.3-0.9c-1.7-0.4-2.3-0.6-2.3-0.6l-0.2-0.6
		C192.5,72.6,192.3,71.6,193.7,72.2z"/>
	<path fill="#FFAF3A" d="M149.6,115.7l3.4,29.3h22.2c-0.2,0-0.3-1-0.4-1.2c-0.4-0.6-1.5-2.1-1.5-2.1l-0.9-2.4l0.6-1.6v-1.5
		c0,0-0.2-0.9,0.4-1.7c0.6-0.8,0.7-1.1,1.3-1.9c0.6-0.7,0.6-1.3,1.3-1.7c0.7-0.4,0.9-1.3,0.9-1.3l-0.2-2.6c0,0-0.4-4.1-3.2-1.7
		c0,0-3,1.9-5.3-2.3c0,0-0.4-2.8-3-2.8c0,0-4.1-0.6-5.5-2.8c0,0-2.1-1.1-3-0.2l-4-0.9c0,0,0-0.4-0.6-0.8c-0.6-0.4-1.5-0.9-1.5-0.9
		s0.4-0.4-0.4-0.8c-0.5-0.3-1.7-0.3-2.4-0.4C148.9,113.7,149.5,114.7,149.6,115.7z"/>
	<path fill="#FFFFFE" d="M143.5,104.4l0.9,1.5c0.7,0.8,2.8,4.3,2.8,4.3l0.4,2.8c0.2,0,0.3,0.1,0.4,0.1c0.6,0.1,1.8,0.4,2.4,0.7
		c0.7,0.4,0.4,0.8,0.4,0.8s0.9,0.6,1.5,0.9c0.6,0.4,0.6,0.8,0.6,0.8l4,0.9c0.9-0.9,3,0.2,3,0.2c1.3,2.3,5.5,2.8,5.5,2.8
		c2.6,0,3,2.8,3,2.8c2.3,4.1,5.3,2.3,5.3,2.3c2.8-2.4,3.2,1.7,3.2,1.7l0.2,2.6c0,0-0.2,0.9-0.9,1.3c-0.8,0.4-0.8,0.9-1.3,1.7
		c-0.6,0.7-0.7,1.1-1.3,1.9c-0.6,0.8-0.4,1.7-0.4,1.7v1.5l-0.6,1.5l0.9,2.3c0,0,1.1,1.8,1.5,2.4c0.1,0.2,0.3,1.2,0.4,1.2h20
		l2.2-17.3l-1.8-2.2l-1.7-1.3l-1.3-0.5l-0.9-0.7h-0.6c0,0-1.5,0.1-2.4-0.1c-0.9-0.2-1.5-0.1-1.5-0.1l-1.1-0.4l-1.1-1.3l-1.1-0.2
		c0,0-0.8,0.4-1.3,0.4c-0.6,0-0.9,0.4-0.9,0.4l-1.1,0.2l-1.3,0.2l-0.4,0.6l-0.8,1.7l-0.7,0.9c0,0-0.9-0.9-1.3-1.7
		c-0.4-0.8-1.5-0.6-1.5-0.6l-1.3,0.6l-0.9,0.2c0,0-0.8-0.2-1.1-0.7c-0.4-0.6-0.7-0.8-0.7-1.3c0-0.6,0.2-0.8,0.2-1.3
		c0-0.6,0.2-1,0.2-1c0.4-3.2-2.6-1.4-2.6-1.4H167h-1.5l-1.3-0.9c0,0,0.6-1,0.8-1.6c0.2-0.6,0.6-1.8,0.6-1.8l0.4-1l0.6-1.7l-0.6-0.6
		l-1.9,0.2c-1.9-0.2-1.9,1.9-1.9,1.9v0.8l-1.7,0.7l-1.9,0.2c-4.7-1.5-3.4-8.5-3.4-8.5s1.1-1.7,1.7-2.1c0.3-0.2,0.7-0.6,1.1-0.6
		c-5.4,0-10.8,0-15.9,0c0,0,0,0,0,0L143.5,104.4z"/>
	<path fill="#FFFFFE" d="M170.2,104.7l1.1,1.3l1,1.1l0.7-1.1c0,0,0-0.9,0-1.9c0-0.8-0.9-1.2-1.3-1.2c-0.9,0-1.8,0-2.8,0l0.5,0.8
		L170.2,104.7z"/>
	<path fill="#FFFFFE" d="M140.3,105.1l1.1,1.1c0,0,0.8,0.7,1.1,1.3c0.4,0.6,1.1,1.1,1.1,1.1l-0.6-1.7l-0.8-1.5l-0.8-1.4L141,103
		c-0.5,0-1,0-1.5,0c0.1,0,0.2,0.5,0.2,0.8C139.7,104.3,140.3,105.1,140.3,105.1z"/>
	<path fill="#FFFFFE" d="M217.8,145c0.3-2,0-2.4-0.1-2.7c-0.2-0.6-0.6-0.8-0.6-0.8l-1.3-1.1l-1.1-1c0,0-0.8-0.2-1.5-0.4
		c-0.8-0.2-1.1-0.2-1.1-0.2l-1.3-0.8l-0.8-0.8l-1.9-1.3c0,0-0.6-0.2-1.4-1.1c-0.8-0.9-0.8-1.1-0.8-1.1v-1.3c-1-1.9-2.1-2.4-3.1-2.9
		l-2.3,15.5H217.8z"/>
	<path fill="#FFFFFE" d="M197.4,167.9c0.2-0.2,0.4-0.3,0.6-0.4c1.1-0.9,1.3-1.5,1.3-1.5s1.1-0.6,1.5-1.3c0.4-0.8,1.7-1.3,1.7-1.9
		c0-0.6,0.2-1.3,0.4-2.1c0.2-0.8,0.8-0.6,2.1-1.3c1.3-0.8,1.7-0.8,1.7-0.8s1.5-0.6,2.1-0.8c0.6-0.2,1.3-0.8,2.3-1.5
		c0.9-0.8,0.6-1.3,0.9-2.1c0.4-0.8,0.9-2.1,0.9-2.1l0.6-2.3c0-0.3,0.1-1,0.2-1h-13.8L197.4,167.9z"/>
	<path fill="#FFFFFE" d="M177.6,149c0,0,0,0.2,0.1,0.2c0.6,1.3,0.8,1.2,1.3,1.7c0.6,0.6,1.1,0.8,2.4,1.5c1.3,0.7,1.5,0.6,2.1,1.7
		c0.6,1.1,0,1.7,0,2.6c0,0.9-0.2,1.7-0.4,2.8c-0.2,1.1-0.4,2.6-0.4,2.6l-0.4,3c0,0-0.4,2.1-0.6,2.6c-0.2,0.6-0.2,2.6-0.2,2.6
		l-0.2,2.6l-0.4,1.3v2.4c-3,8.1,5.3,6.6,5.3,6.6l-0.6-1.7l-1.4-0.7l0.1-0.6c0,0,0.5-0.6,1.3-1.1c0.8-0.6,0.5-0.8,0.5-0.8l-0.2-0.9
		c0,0,0,0,0.7-0.4c0.8-0.4,0.7-0.9,0.7-0.9l0.6-0.6l-0.4-0.9l1.1-0.4l0.6-1.3c0,0,1.4-0.6,2.2-0.8l3.1-23.4H177.6z"/>
	<path fill="#FFFFFE" d="M176.2,90.5c1.1-0.8,0.6-1,0.8-1.9c0.2-0.9,0.6-1.5,0.6-1.5s0,0,0.6,0c0.6,0,0.8,0,0.8,0s0,0,0.9,0
		c0.9,0,1.3,0.2,1.3,0.2l1.1-0.6l-0.9-1.4c-1.7-3.2-3.8-2.3-5-1.3l0.9-0.8l1.5-0.7l1.1,0.8l0.9,0.8l0.9-1.1c0,0,0.6-0.8,1.7-0.6
		l0.2,1.3l1.1,1.1c0,0,0.1,0.4,0.9,0.4c0.8,0,1.5,0.6,1.5,0.6c2,0,0-0.6,0-0.6l-0.5-1.3l-0.2-0.6l-2.1-1.3l-0.8-1.3l-0.7-0.4
		l-1.5-0.2l-0.9-0.4l-1.5-1.3l0.4-0.8l-1.1-0.4l-1.3-1.3l-0.9-0.9l-0.7,0.9l-1.3,0.2c0,0-0.4-0.6-0.9-0.9c-0.6-0.4-1.1-1.1-1.1-1.1
		l-1.7-0.8l-2.1-0.2l0.6,1.3l0.2,1.9l0.4,1.3l-0.2,1.9l-0.4,1.3l-0.9,0.2l-1.7,1.1h-1.1c0,0-0.4,2.3-0.2,3.6
		c0.2,1.3-1.7-0.1-1.7-0.1l-1.3-0.3l0.2-1.2l-0.4-1c0,0-0.2-1.1,0-2.1c0.2-0.9,0.4-0.6,0.4-0.6l0.6-0.2L164,79l-0.8-1.5l-1.3-0.4
		l-1.9-0.2l-0.6-1.3l1.7-1.7l1.1-2.1l1.3-1.7l1.5-0.4l0.4-0.6l-0.6-1.5l0.2-1.1l1.1,0.4l1.1,0.9l0.4,0.9l0.9-0.7l0.2,0.7l-0.4,1.7
		l-0.9,0.6l1.5,0.4l1.1,0.2l1.3,1.4l2.3,1h1.1l-1.3-1.2L175,73V72l-0.9-0.2l-1.5-1.3l0.4-0.6l1.1,1.1h0.8l-0.2-1.5l-0.6-0.6
		l-0.9-0.4c-0.4-3-5.5-3.8-5.5-3.8l-0.6-0.2l-1.7-0.9l-0.8,1.4h-0.9l-1.7-0.3l0.6-0.8l1.5-0.4l-0.6-0.8l-0.9-0.2l-2.1-0.4l-2.8-1.1
		l1.3,1.7l1.7,0.9l-0.2,1.1l0.2,0.9l1.9,0.9l0.4,1.5l-0.7,1.1l-0.4-1.3h-0.6l-0.9-0.7l-0.9-1.2l0.2-1.4l-1-0.8l-0.6,1.9v0.9l1,1.1
		l-0.4,0.6l-1.3-1.3l0.2,1.4l-1.3,1.4h-1.3h-1.5l-2.8-0.9l1.9-0.4l1.3-0.9l1.3,0.3l1.3-1.2l-1.7-0.8l0.6-0.8l0.6,0.6l1.7-0.8
		l-0.4-0.8l-0.9-0.2l-1.5-0.1l-0.4,0l0.8-0.5l1.1-0.6h1.1l0.4-1l-0.9,0.7l-1.1-0.1l-0.8-0.3l-0.4,0.8l-0.9,0.4l-1.1-0.4l-0.9-0.8
		l-2.1,0.9l1.1,1l0.7,0.8h1.1l0.9,0.3l-0.4,0.8l-1.5-0.3l-1.1-1l-1.1,0.1H148l-0.4,1.2l-0.6,0.4l0.7,0.8l1.1-0.6l0.6,0.6l-0.2,1.2
		l-0.9-0.5h-1.1l-3.8,2h-1.9l-1.9-0.3l-4.5,0.5l-1.9,1.2l-2.6,2.4l0.2,0.9l-1.1,0.7l-1.5,0.7l-0.8,1.7l0.8,0.4c0,0-1.5,1.3-2.1,1.9
		c-0.6,0.6-0.9,1.5-0.9,1.5l-0.6,1.3c0,0-5.1,4.1-4,3.6c1.1-0.6,1.9-1.1,2.6-1.7c0.8-0.6,2.8-1.7,3.6-2.1c0.8-0.4,1.3-1.3,1.3-1.3
		c7.1-3.9,7.9-2.4,7.9-2.4c1.5,0.6,1.1,5.6,1.1,5.6c0.6,1.7-0.4,4.3-0.4,4.3c-0.7,1.9-1,4-1,4H174l0.7-1
		C174.7,92,175,91.2,176.2,90.5z"/>
	<path fill="#FFFFFE" d="M175.6,110c0,0-7.3-3-6.6,0.2c0,0,2.1-0.9,3.9,0.4l2.4,0.7l1.3,0.7h1.5l-0.6-0.9L175.6,110z"/>
	<polygon fill="#FFFFFE" points="182.9,113.4 182.2,113 181.4,113.4 180.8,113.8 180,114.1 180,114.7 182.3,114.1 183.4,114.7 
		186.2,113.6 184.5,113.2 	"/>
	<path fill="#FFFFFE" d="M163.6,61.9l0.6-2.1l0.4-0.9l2-0.1c-1.5,0.5-1.8,2.2-1.8,2.2c0,2.1,3.2,1.7,3.2,1.7
		c1.5-0.2,2.4-0.2,2.4-0.2c1.7,0,5.1,3.2,5.1,3.2l0.8,1.3h1.7l1.7,2.4l-1.9-1.3l1.1,1.7l2.1,1.5l2.3,2.4c0,0,1.1,1.7,1.7,1.9
		c0.6,0.2,0.9,0.4,1.5,0.6c0.6,0.2,0.8,0.7,0.8,0.7l0.7-0.4l-0.6-2.1l-1.2-1.9v-1.1c1-0.6,0.6-2.1,0.6-2.1l1-0.4
		c2.4-1.1-0.2-2.3-0.2-2.3s-1.7-1.3-2.1-2.3c-0.4-0.9-1.9-0.8-2.8-1.5c-0.9-0.8-2.3-1.3-2.3-1.3s-2.4-1.1-3-1.5
		c-0.6-0.4-0.8-0.2-1.3-0.2c-0.6,0-0.9,0-0.9,0l-0.4-0.8l-0.9-0.6l-3-0.6l-0.2-1c0,0,1.7,0,2.4,0c0.7,0,3,2,3,2h1.3l1.9-2
		c0,0,1.5,0,2.8,0c1.3,0,1.9,1.2,1.9,1.2l3.6,0.5l0.2-0.6c-35.4-6.6-52.1,9.1-52.1,9.1l1.7,0.4l1.1-0.7l1.7-0.6l1.3-0.6l0.9-0.4
		l0.9-0.9l1.5-0.2l1.1-0.5l1.3-0.8h0.9h0.8l1.9-0.5l0.9-0.5h1.3l0.2,0.6l0.9-0.5l0.4-1.4l0.6,0.4l1.5,0.6l0.6-0.6l0.6-1.5l0.7,0.4
		h0.8l-0.6-1h0.9l1.3,0.8l-0.6,1l-0.4,0.5l0.6,1c0,0,1.1,0,1.7-0.2C162.8,61.8,163.6,61.9,163.6,61.9z"/>
	<path fill="#FFFFFE" d="M223.2,82.1l0.4,1.9h-0.7l-0.2,1.3l0.4,0.9c0,0,0.6-0.1,0.9-0.7c0.4-0.6,0.8-1,0.8-1l0.2,1.4v1.1l0.9,1.1
		l1.8-0.2C225.5,83.5,223.2,82.1,223.2,82.1z"/>
	<path fill="#FFFFFE" d="M225.6,83.5l2.4,3.4l-0.4,0.4l-0.6,0.7h-1.5l0.4,1.5l1.1,1.6l0.4,1.6l-0.6,1c0,0-0.8,0-1.1-0.5
		c-0.4-0.6-2-0.2-2-0.2l-0.8,1v-1h9.9c-3-6-6.7-10.8-6.7-10.8L225.6,83.5z"/>
	<path fill="#FFFFFE" d="M225.3,105.7c0,0-0.4,0.6-0.9,0.8c-0.6,0.2-1.3,0.8-1.3,0.8s-1.3,1.5-1.9,2.1c-0.6,0.6-1.3,2.1-1.5,2.6
		c-0.2,0.6-0.2,1.9-0.2,2.4c0,0.6-0.2,2.3-0.2,2.3s-0.6,0.9-0.8,1.9c-0.2,0.9-0.2,2.3-0.2,2.3l0.2,1.5l1.7,2.1l0.7,1.5l0.6,1.3
		l1.1,1.7l2.3,0.7l0.6-0.5l1.7-0.1h1.5l1.1-1h2.1c0,0,0,0,0.2,0.6c0.2,0.6,0.7,0.6,0.7,0.6l1.3,0.4v2.1l-0.3,2.1
		c0,0-0.3,1.1-0.1,1.9c0.2,0.8,0.4,1.9,0.4,1.9v3.2l0.1,2.3c0,0-0.6,1.5-1,2.1c-0.4,0.6-0.2,3.2-0.2,3.2l0,2.3v3l-0.5,2.6
		c13.9-25.4,5.9-47,5.9-47l-0.6-1.3l-0.8-1.1v1.7l-1-0.9c0,0-1.1-1.3-1.1-1.9c0-0.6-0.6-1.2-0.6-1.2L234,103c-2.2,0-4.4,0-6.8,0
		l-1.3,1.3L225.3,105.7z"/>
	<path fill="#FFFFFE" d="M203.4,184.7l-3.2,1.3c0,0-0.7,0.6-1.9,0.8c-1.1,0.2-0.9-0.2-2.3,0.2c-1.3,0.4-2.3,0.8-2.8,0.9
		c-0.6,0.2-0.9-0.3-2.3-0.3c-1.3,0-1.3-0.5-2.8-0.5c-1.5,0-4.1,0-4.1,0l-0.9,0l-1.7,1l0.5,1.1c5.3,0,10.5,0,15.4,0
		c2.3-2,4.5-2.2,6.5-3.7L203.4,184.7z"/>
	<path fill="#FFFFFE" d="M123.1,148c0,0.3-0.1,0.6-0.1,0.8c0,0.6,0,1.3,0,1.3l-1.1-1.3l-1.5-0.6c0,0-0.2-0.6-0.2-1.1
		c0-0.6,0.8-3-3-2.6l-1.3,0.7l-0.4,0.9h-0.9l-1.3,1l-0.2,1.1l-0.8,1.5l-0.8,0.2l-0.6,2.2c0,0,3,8.3,4.7,8.5l1.7,0.2
		c0,0,3.4-0.2,4.3,1.9l0.8,0.6c0,0,0.2,1.1,0.8,1.1c0.6,0,1.1,0.2,1.1,0.2l1.3,1.9l2.4,1.7l0.9,0.9l1.7,3l0.4-0.7l-0.3-0.6l-0.9-1.1
		v-1.1l1.5-0.2l0.5-1.5c0,0,0.4-0.6,0.6-1.3c0.2-0.8,0.6-1.9,0.8-2.4c0.2-0.6,0.2-1.7-0.2-2.4c-0.4-0.8-1.3-3-1.3-3
		s-1.5-2.4-1.9-3.2c-0.4-0.7-2.1-2.3-2.1-2.3l-1.5-2.9h-1.1C124.4,149,123.6,148.6,123.1,148z"/>
	<path fill="#FFFFFE" d="M105.3,135.3l0.8-0.1l0.9-0.3h1.1c0,0,0.6,0.4,0.6-0.6l1.1-1.3l2.3,0.3l0.6,0.8l0.2,1.5l-1.1-0.4l0-1.3
		l-0.7-0.2v2.1v2.1l0.7,0.6l0.2-1.1l1.2-0.9l2,0.4l1.3,0.4c0,0,0.7,0.6,1.3,0.8c0.6,0.2,1.9,0.8,1.9,0.8s0.7,0.7,1.7,1.5
		c0.9,0.8-0.4,0.8-0.4,0.8l-1.1,0.2c0,0,0.4,0.8,0.9,1.1c0.6,0.4,1.3,0.4,1.3,0.4s0.6,0.4,1.5,0.8c0.9,0.4,1.3-0.6,1.3-0.6l0.2-1.1
		l1.3,0.9c0,0,1.1,0.3,1.6,2.3h2.2l-1.5-2l-0.9-1.4l1.9-0.5l1.1-0.4c0,0,1.7-1,1.9-1.5c0.2-0.6-0.9-0.4-0.9-0.4l-1.7,0.9l-1.9,0.7
		l-0.2,0.1l-1.1-0.4c-0.8-2.8-8.6-5.1-8.6-5.1l-2.3-0.4l-1.3-0.6l-1.1,0.8l-0.4-1.7l0.2-2.1h-1.5l-1.5,0.4l-1.3,0.5
		c0,0-0.4-1.6-0.2-3c0.2-0.6-0.2-1.9-0.2-1.9s-0.2-1.3-0.8,0c-0.6,1.3-1.3,3.4-1.3,3.4l-0.4,1.3l-0.4-1.3l-0.2-1.9l-0.4-2.4
		c0,0-0.2-1.3,0-1.9c0.2-0.6,0.2-2.6,0.2-2.6s0.4-2.3,0.4-2.8c0-0.6,0.4-3.2,0.4-3.2l1.3-2.3c0,0,0.5-0.8,0.5-1.5c0-0.8,0-2.6,0-3.6
		c0-0.9-0.3-2.3-0.1-2.8c0.2-0.6,1.2-0.9,1.2-0.9l0.2,0.9l0.4,0.8l0.9-2.1l0.8-1.1c-1.3,0-2.5,0-3.7,0
		C105.2,110,103,121,105.3,135.3z"/>
	<path fill="#FFFFFE" d="M109.6,120.9c-0.8-1.1-0.4-0.9-0.6-1.6c-0.2-0.8,0-1.3,0-1.3h0v3.9l0.9,1.1l0.2,1.3l1.2,0.6l-0.6,0.9
		l0.7,2.1c0,0,0.9,0.4,1.1-0.9c0.2-1.3-0.6-1.9-0.6-1.9s-0.4-1.7-0.6-2.3C111.1,122.2,110.4,122,109.6,120.9z"/>
	<path fill="#FFFFFE" d="M143.8,163.4c-0.7-0.4-0.6,1.1-0.6,1.1s0.4,0.9,0,1.5c-0.4,0.6,0-0.8-0.4,0.6c-0.4,1.3-0.9,1.1-1.5,1.3
		c-0.6,0.2-1.3,0.7-1.3,0.7l-1.5,0.4c0,0-2.4,0.9-0.4,2.3l1.5-0.6l0.9-0.6l1.5-0.6c0,0,0.2-0.6,0.9-0.6c0.7,0,1.3,0,1.7-0.6
		c0.4-0.6,0.9-0.9,0.9-0.9l0.2-0.6l-1.1-1.3C144.8,165.7,144.6,163.8,143.8,163.4z"/>
	<path fill="#FFFFFE" d="M192.7,73.2c0,0,0.6,0.2,2.3,0.6c1.7,0.4,0.8,0.6,1.3,0.9c0.6,0.4,1.5,0.4,1.5,0.4l0.9-1.3l-1.5-0.7
		l-1.5-1.1l-2.1,0.4c-1.3-0.6-1.1,0.4-1.1,0.4L192.7,73.2z"/>
	<circle fill="#006DB6" cx="151.7" cy="255.4" r="10.4"/>
	<circle fill="#006DB6" cx="209.2" cy="255.4" r="10.4"/>
	<path fill="#006DB6" d="M264,95.3c-0.8-1.1-2.1-2.3-3.5-2.3h-23.7h-4h-9.4H174h-38.1h-27.6H88.4c-4.3-12-7.2-21-7.2-21
		c-0.6-1.8-2.2-2-4.1-2H28.9c-2.4,0-4.3,1.1-4.3,3.5c0,2.4,1.9,3.5,4.3,3.5c0,0,39.6,0,45.1,0c1.9,7,51.9,159.3,51.9,159.3
		c0.6,1.8,2.2,3.7,4.1,3.7h99.5c2.4,0,4.3-2.1,4.3-4.5c0-2.4-1.9-4.5-4.3-4.5c0,0-90.5,0-96.4,0c-0.3-2-2.2-8-5-14H200v-5.8V207
		h-74.7c-1-3-2-6-3.1-9H231c1.9,0,3.6-1.5,4.1-3.3l29.5-95.2C265.1,98.2,264.8,96.4,264,95.3z M227.8,189c-1.6,0-10.4,0-22.4,0
		c-2.6,0-5.3,0-8.1,0c-4.9,0-10.1,0-15.4,0c-14.6,0-30.1,0-42.3,0c-9.4,0-16.7,0-20.3,0c-3-8-6.2-18.9-9.5-29
		c-2.8-8.5-5.6-16.9-8.3-25.3c-3.7-11.5-7.3-22.8-10.4-31.8c3.2,0,7.8,0,13.5,0c0.9,0,1.9,0,2.9,0c1.2,0,2.5,0,3.7,0
		c8.1,0,17.8,0,28.2,0c0.5,0,1,0,1.5,0c0.3,0,0.7,0,1,0c5.2,0,10.5,0,15.9,0c3.6,0,7.3,0,11,0c0.9,0,1.8,0,2.8,0c20,0,40,0,55.4,0
		c2.4,0,4.7,0,6.8,0c2.3,0,4.5,0,6.4,0c7.5,0,12.6,0,14.3,0C251.7,113,229.5,184,227.8,189z"/>
	<path fill="#006DB6" d="M175.3,145h-22.2l-3.4-29.3c-0.1-1-0.8-2-1.6-2.3c-0.1-0.1-0.3-0.2-0.4-0.3c-0.3-0.1-0.5-0.1-0.8-0.1
		c-1.4,0.2-2.4,1.9-2.3,3.4l3.4,28.7h-17.6H128h-2.7c-1.4,0-2.6,0.7-2.6,2.1c0,0.5,0.2,0.7,0.5,1.1c0.5,0.7,1.2,0.8,2.1,0.8h1.1
		h22.1l3.8,32c0.2,1.4,1.5,2.5,2.9,2.3c1.4-0.2,2.4-1.5,2.3-3l-3.7-31.4h23.9h17l-3.1,23.4l-0.4,3.3c-0.2,1.4,0.8,2.7,2.2,2.9
		c1.4,0.2,2.7-0.8,2.9-2.2l1.1-8.5l2.5-18.9h13.8h11.1c1.4,0,2.6-0.6,2.6-2s-1.2-2-2.6-2h-7h-17.3l2-15.5l1.5-11.9
		c0.2-1.4-0.8-2.8-2.2-3c-1.4-0.2-2.7,0.7-2.9,2.2l-1.4,11l-2.2,17.3H175.3z"/>
</g>
</svg>
